<svg width="32" height="32" viewBox="0 0 32 32" fill="none" xmlns="http://www.w3.org/2000/svg">
  <style>
    path {
      fill: #000;
    }
    @media (prefers-color-scheme: dark) {
      path {
        fill: #fff;
      }
    }
  </style>
  <path fill-rule="evenodd" clip-rule="evenodd" d="M16 2C8.268 2 2 8.268 2 16s6.268 14 14 14 14-6.268 14-14S23.732 2 16 2zM0 16C0 7.163 7.163 0 16 0s16 7.163 16 16-7.163 16-16 16S0 24.837 0 16z"/>
  <path d="M13.5 9.5c0-.552.448-1 1-1h3c.552 0 1 .448 1 1s-.448 1-1 1h-3c-.552 0-1-.448-1-1zM11 15c0-.552.448-1 1-1h8c.552 0 1 .448 1 1s-.448 1-1 1h-8c-.552 0-1-.448-1-1zM18.5 20.5c0 .552-.448 1-1 1h-3c-.552 0-1-.448-1-1s.448-1 1-1h3c.552 0 1 .448 1 1z"/>
</svg>